<svg width="68" height="120" viewBox="0 0 68 120" fill="none" xmlns="http://www.w3.org/2000/svg">
<g id="Tree">
<g id="Group">
<ellipse id="Oval" opacity="0.68" cx="33.99" cy="33.8716" rx="33.99" ry="33.8717" fill="#9155FD"/>
<path id="Path" opacity="0.68" d="M33.9904 66.6577C15.7971 66.6577 1.08984 51.8931 1.08984 33.8716C1.08984 15.7416 15.906 1.08557 33.9904 1.08557C52.1838 1.08557 66.8911 15.8502 66.8911 33.8716C66.8911 52.0017 52.0749 66.6577 33.9904 66.6577Z" fill="url(#paint0_linear_1_2466)"/>
</g>
<path id="Path_2" d="M40.6662 31.165C40.2503 30.7268 39.6265 30.7268 39.2106 31.165L35.6754 34.8899V19.9902C35.6754 19.3329 35.2595 18.8947 34.6357 18.8947C34.0118 18.8947 33.5959 19.3329 33.5959 19.9902V49.3514L27.8773 43.3258C27.4614 42.8876 26.8376 42.8876 26.4217 43.3258C26.0058 43.7641 26.0058 44.4214 26.4217 44.8596L33.5959 52.419V90.6544C33.5959 91.3117 34.0118 91.7499 34.6357 91.7499C35.2595 91.7499 35.6754 91.3117 35.6754 90.6544V37.9575L40.6662 32.6988C41.0821 32.2606 41.0821 31.6032 40.6662 31.165Z" fill="#9155FD"/>
<rect id="Rectangle" x="23.1362" y="84.3157" width="23.7895" height="35.6842" fill="#C6C2D6"/>
</g>
<defs>
<linearGradient id="paint0_linear_1_2466" x1="66.8911" y1="33.8716" x2="1.08984" y2="33.8716" gradientUnits="userSpaceOnUse">
<stop stop-color="#9155FD"/>
<stop offset="1" stop-color="#C6A7FE"/>
</linearGradient>
</defs>
</svg>
